<svg width="800" height="350" viewBox="0 0 800 350" fill="none" xmlns="http://www.w3.org/2000/svg">
  <defs>
    <linearGradient id="blueGradient" x1="0%" y1="0%" x2="100%" y2="100%">
      <stop offset="0%" stop-color="#3B82F6" />
      <stop offset="100%" stop-color="#2563EB" />
    </linearGradient>
    <filter id="dropshadow" height="130%">
      <feGaussianBlur in="SourceAlpha" stdDeviation="5"/>
      <feOffset dx="0" dy="5" result="offsetblur"/>
      <feComponentTransfer>
        <feFuncA type="linear" slope="0.1"/>
      </feComponentTransfer>
      <feMerge>
        <feMergeNode/>
        <feMergeNode in="SourceGraphic"/>
      </feMerge>
    </filter>
  </defs>

  <!-- ACCOUNT BOUNDARY -->
  <rect x="10" y="25" width="780" height="300" rx="16" fill="#F8FAFC" stroke="#CBD5E1" stroke-width="2" stroke-dasharray="8 4"/>
  <rect x="30" y="15" width="80" height="24" rx="12" fill="#64748B"/>
  <text x="70" y="31" text-anchor="middle" fill="white" font-family="sans-serif" font-weight="900" font-size="9">ACCOUNT</text>

  <!-- BACKGROUND: Subtle Flow Path -->
  <path d="M100 165 H 700" stroke="#E2E8F0" stroke-width="1" stroke-dasharray="10 10" />

  <!-- STAGE 1: SOURCE BUCKET -->
  <g filter="url(#dropshadow)" transform="translate(40, 100)">
    <path d="M10 30 L 18 100 C 18 115, 82 115, 82 100 L 90 30 Z" fill="white" stroke="#94A3B8" stroke-width="2"/>
    <ellipse cx="50" cy="30" rx="40" ry="10" fill="#F1F5F9" stroke="#94A3B8" stroke-width="2"/>
    <text x="50" y="80" text-anchor="middle" fill="#64748B" font-family="sans-serif" font-weight="800" font-size="8">SOURCE</text>
    <text x="50" y="95" text-anchor="middle" fill="#1E293B" font-family="sans-serif" font-weight="900" font-size="12">100 TB</text>
  </g>

  <!-- STAGE 2: s3lim ENGINE -->
  <g filter="url(#dropshadow)" transform="translate(190, 125)">
    <path d="M40 0 L75 20 L75 60 L40 80 L5 60 L5 20 Z" fill="url(#blueGradient)" />
    <path d="M22 25 L58 40 L22 55 L32 40 Z" fill="white" />
    <text x="40" y="100" text-anchor="middle" fill="#2563EB" font-family="sans-serif" font-weight="800" font-size="10">s3lim</text>
  </g>

  <!-- STAGE 3: PREFIX BREAKDOWN -->
  <g transform="translate(340, 65)">
    <g filter="url(#dropshadow)">
      <rect width="110" height="36" rx="8" fill="white" stroke="#F1F5F9" stroke-width="2"/>
      <text x="12" y="23" fill="#1E293B" font-family="monospace" font-weight="bold" font-size="10">/users</text>
      <text x="75" y="23" fill="#94A3B8" font-family="sans-serif" font-weight="bold" font-size="9">40 TB</text>
    </g>
    <g filter="url(#dropshadow)" transform="translate(15, 85)">
      <rect width="110" height="36" rx="8" fill="white" stroke="#F1F5F9" stroke-width="2"/>
      <text x="12" y="23" fill="#1E293B" font-family="monospace" font-weight="bold" font-size="10">/logs</text>
      <text x="75" y="23" fill="#94A3B8" font-family="sans-serif" font-weight="bold" font-size="9">30 TB</text>
    </g>
    <g filter="url(#dropshadow)" transform="translate(0, 170)">
      <rect width="110" height="36" rx="8" fill="white" stroke="#E2E8F0" stroke-width="2"/>
      <text x="12" y="23" fill="#1E293B" font-family="monospace" font-weight="bold" font-size="10">/tmp</text>
      <text x="75" y="23" fill="#94A3B8" font-family="sans-serif" font-weight="bold" font-size="9">30 TB</text>
    </g>
  </g>

  <!-- STAGE 4: INSIGHTS -->
  <g transform="translate(490, 50)">
    <text x="0" y="25" fill="#EF4444" font-family="sans-serif" font-weight="bold" font-size="10">Duplicates (12TB)</text>
    <text x="10" y="85" fill="#94A3B8" font-family="sans-serif" font-weight="bold" font-size="10">Ghost Data (8TB)</text>
    <text x="25" y="115" fill="#6366F1" font-family="sans-serif" font-weight="bold" font-size="10">Wasteful Tier (14TB)</text>
    <text x="15" y="195" fill="#3B82F6" font-family="sans-serif" font-weight="bold" font-size="10">Small Files (5TB)</text>
    <text x="0" y="225" fill="#F59E0B" font-family="sans-serif" font-weight="bold" font-size="10">Abandoned (5TB)</text>
  </g>

  <!-- STAGE 5: SAVINGS GIFT BOX (Fixed Bow Placement) -->
  <g filter="url(#dropshadow)" transform="translate(680, 140)">
    <!-- Box Body -->
    <rect x="5" y="12" width="80" height="60" rx="4" fill="#F0FDF4" stroke="#10B981" stroke-width="2"/>
    <!-- Box Lid -->
    <rect x="0" y="0" width="90" height="12" rx="4" fill="#DCFCE7" stroke="#10B981" stroke-width="2"/>
    
    <!-- Bow (Lifted to sit ON the lid) -->
    <!-- Left Loop -->
    <path d="M25 -15 c-8 0-14 6-14 14 s6 14 14 14 s14-6 14-14 S33 -15 25-15z M25 7 c-3 0-5-2-5-5 s2-5 5-5 s5 2 5 5 S28 7 25 7z" fill="#059669" fill-opacity="0.6"/>
    <!-- Right Loop -->
    <path d="M65 -15 c-8 0-14 6-14 14 s6 14 14 14 s14-6 14-14 S73 -15 65-15z M65 7 c-3 0-5-2-5-5 s2-5 5-5 s5 2 5 5 S68 7 65 7z" fill="#059669" fill-opacity="0.6"/>
    <!-- Central Knot -->
    <rect x="40" y="-4" width="10" height="10" rx="2" fill="#10B981"/>

    <text x="45" y="40" text-anchor="middle" fill="#059669" font-family="sans-serif" font-weight="800" font-size="8">SAVINGS</text>
    <text x="45" y="60" text-anchor="middle" fill="#15803D" font-family="sans-serif" font-weight="900" font-size="14">$1,012</text>
  </g>

  <!-- CONNECTORS (Aligned to Stage 5 transform y=140) -->
  <path d="M130 170 H 190" stroke="#CBD5E1" stroke-width="2" stroke-dasharray="5 3"/>
  <path d="M265 170 C 300 170, 320 83, 340 83" stroke="#CBD5E1" stroke-width="2" stroke-dasharray="5 3"/>
  <path d="M265 170 C 300 170, 320 170, 355 168" stroke="#CBD5E1" stroke-width="2" stroke-dasharray="5 3"/>
  <path d="M265 170 C 300 170, 320 253, 340 253" stroke="#CBD5E1" stroke-width="2" stroke-dasharray="5 3"/>

  <path d="M450 83 C 470 83, 480 75, 490 75" stroke="#EF4444" stroke-width="1.5" stroke-opacity="0.3"/>
  <path d="M465 163 C 485 163, 490 135, 500 135" stroke="#94A3B8" stroke-width="1.5" stroke-opacity="0.3"/>
  <path d="M465 173 C 485 173, 505 165, 515 165" stroke="#6366F1" stroke-width="1.5" stroke-opacity="0.3"/>
  <path d="M450 248 C 475 248, 495 245, 505 245" stroke="#3B82F6" stroke-width="1.5" stroke-opacity="0.3"/>
  <path d="M450 258 C 470 258, 480 275, 490 275" stroke="#F59E0B" stroke-width="1.5" stroke-opacity="0.3"/>

  <!-- Outcome links (To Gift Box Edge x=680) -->
  <!-- Note: Stage 5 is translate(680, 140). Vertical center is approx y=170 -->
  <path d="M580 75 C 630 75, 650 170, 680 170" stroke="#10B981" stroke-width="1.5" stroke-opacity="0.3"/>
  <path d="M585 135 C 630 135, 650 170, 680 170" stroke="#10B981" stroke-width="1.5" stroke-opacity="0.3"/>
  <path d="M615 165 C 640 165, 660 170, 680 170" stroke="#10B981" stroke-width="1.5" stroke-opacity="0.3"/>
  <path d="M590 245 C 640 245, 660 170, 680 170" stroke="#10B981" stroke-width="1.5" stroke-opacity="0.3"/>
  <path d="M570 275 C 630 275, 660 170, 680 170" stroke="#10B981" stroke-width="1.5" stroke-opacity="0.3"/>
</svg>
