<svg width="800" height="300" viewBox="0 0 800 300" fill="none" xmlns="http://www.w3.org/2000/svg">
  <defs>
    <linearGradient id="blueGradient" x1="0%" y1="0%" x2="100%" y2="100%">
      <stop offset="0%" stop-color="#3B82F6" />
      <stop offset="100%" stop-color="#2563EB" />
    </linearGradient>
    <filter id="dropshadow" height="130%">
      <feGaussianBlur in="SourceAlpha" stdDeviation="5"/>
      <feOffset dx="0" dy="5" result="offsetblur"/>
      <feComponentTransfer>
        <feFuncA type="linear" slope="0.1"/>
      </feComponentTransfer>
      <feMerge>
        <feMergeNode/>
        <feMergeNode in="SourceGraphic"/>
      </feMerge>
    </filter>
  </defs>

  <!-- BACKGROUND: Subtle Flow Path -->
  <path d="M100 145 H 700" stroke="#F1F5F9" stroke-width="1" stroke-dasharray="10 10" />

  <!-- STAGE 1: SOURCE BUCKET (Center-Y: 145) -->
  <g filter="url(#dropshadow)" transform="translate(30, 80)">
    <path d="M10 30 L 18 100 C 18 115, 82 115, 82 100 L 90 30 Z" fill="white" stroke="#E2E8F0" stroke-width="2"/>
    <ellipse cx="50" cy="30" rx="40" ry="10" fill="#F8FAFC" stroke="#E2E8F0" stroke-width="2"/>
    <text x="50" y="80" text-anchor="middle" fill="#94A3B8" font-family="sans-serif" font-weight="800" font-size="8">SOURCE</text>
    <text x="50" y="95" text-anchor="middle" fill="#1E293B" font-family="sans-serif" font-weight="900" font-size="12">100 TB</text>
  </g>

  <!-- STAGE 2: s3lim ENGINE (Center-Y: 145) -->
  <g filter="url(#dropshadow)" transform="translate(180, 105)">
    <path d="M40 0 L75 20 L75 60 L40 80 L5 60 L5 20 Z" fill="url(#blueGradient)" />
    <path d="M22 25 L58 40 L22 55 L32 40 Z" fill="white" />
    <text x="40" y="100" text-anchor="middle" fill="#2563EB" font-family="sans-serif" font-weight="800" font-size="10">s3lim</text>
  </g>

  <!-- STAGE 3: PREFIX BREAKDOWN -->
  <g transform="translate(330, 45)">
    <!-- /users (Center-Y: 63) -->
    <g filter="url(#dropshadow)">
      <rect width="110" height="36" rx="8" fill="white" stroke="#F1F5F9" stroke-width="2"/>
      <text x="12" y="23" fill="#1E293B" font-family="monospace" font-weight="bold" font-size="10">/users</text>
      <text x="75" y="23" fill="#94A3B8" font-family="sans-serif" font-weight="bold" font-size="9">40 TB</text>
    </g>
    <!-- /logs (Center-Y: 148) -->
    <g filter="url(#dropshadow)" transform="translate(15, 85)">
      <rect width="110" height="36" rx="8" fill="white" stroke="#F1F5F9" stroke-width="2"/>
      <text x="12" y="23" fill="#1E293B" font-family="monospace" font-weight="bold" font-size="10">/logs</text>
      <text x="75" y="23" fill="#94A3B8" font-family="sans-serif" font-weight="bold" font-size="9">30 TB</text>
    </g>
    <!-- /tmp (Center-Y: 233) -->
    <g filter="url(#dropshadow)" transform="translate(0, 170)">
      <rect width="110" height="36" rx="8" fill="white" stroke="#F1F5F9" stroke-width="2"/>
      <text x="12" y="23" fill="#1E293B" font-family="monospace" font-weight="bold" font-size="10">/tmp</text>
      <text x="75" y="23" fill="#94A3B8" font-family="sans-serif" font-weight="bold" font-size="9">30 TB</text>
    </g>
  </g>

  <!-- STAGE 4: INSIGHTS (Y adjusted to align with links) -->
  <g transform="translate(480, 30)">
    <text x="0" y="25" fill="#EF4444" font-family="sans-serif" font-weight="bold" font-size="10">Duplicates (12TB)</text>
    <text x="10" y="85" fill="#94A3B8" font-family="sans-serif" font-weight="bold" font-size="10">Ghost Data (8TB)</text>
    <text x="25" y="115" fill="#6366F1" font-family="sans-serif" font-weight="bold" font-size="10">Wasteful Tier (14TB)</text>
    <text x="15" y="195" fill="#3B82F6" font-family="sans-serif" font-weight="bold" font-size="10">Small Files (5TB)</text>
    <text x="0" y="225" fill="#F59E0B" font-family="sans-serif" font-weight="bold" font-size="10">Abandoned (5TB)</text>
  </g>

  <!-- STAGE 5: GARBAGE BIN (Center-Y: 145) -->
  <g filter="url(#dropshadow)" transform="translate(660, 80)">
    <path d="M10 30 L 18 100 C 18 115, 82 115, 82 100 L 90 30 Z" fill="#FEF2F2" stroke="#EF4444" stroke-width="2" stroke-dasharray="4 2"/>
    <ellipse cx="50" cy="30" rx="42" ry="12" fill="#FEE2E2" stroke="#EF4444" stroke-width="2"/>
    <path d="M40 22 C 40 12, 60 12, 60 22" fill="none" stroke="#EF4444" stroke-width="2" stroke-linecap="round"/>
    <text x="50" y="80" text-anchor="middle" fill="#EF4444" font-family="sans-serif" font-weight="800" font-size="8">WASTE</text>
    <text x="50" y="95" text-anchor="middle" fill="#B91C1C" font-family="sans-serif" font-weight="900" font-size="12">$1,012</text>
  </g>

  <!-- CONNECTORS (Source -> Hub -> Prefixes -> Insights -> Total) -->
  <!-- Center Flow Line is y=145 -->
  <path d="M120 145 C 140 145, 160 145, 185 145" stroke="#CBD5E1" stroke-width="2" stroke-dasharray="5 3"/>

  <path d="M255 145 C 290 145, 310 63, 330 63" stroke="#CBD5E1" stroke-width="2" stroke-dasharray="5 3"/>
  <path d="M255 145 C 290 145, 320 148, 345 148" stroke="#CBD5E1" stroke-width="2" stroke-dasharray="5 3"/>
  <path d="M255 145 C 290 145, 310 233, 330 233" stroke="#CBD5E1" stroke-width="2" stroke-dasharray="5 3"/>

  <!-- Prefixes (y=63, 148, 233) to Insights (y=55, 115, 145, 225, 255) -->
  <!-- Alignment points are middle of text (approx y - 4) -->
  <path d="M440 63 C 460 63, 470 51, 480 51" stroke="#EF4444" stroke-width="1.5" stroke-opacity="0.3"/>
  
  <path d="M455 143 C 475 143, 480 111, 490 111" stroke="#94A3B8" stroke-width="1.5" stroke-opacity="0.3"/>
  <path d="M455 153 C 475 153, 495 141, 505 141" stroke="#6366F1" stroke-width="1.5" stroke-opacity="0.3"/>
  
  <path d="M440 228 C 465 228, 485 221, 495 221" stroke="#3B82F6" stroke-width="1.5" stroke-opacity="0.3"/>
  <path d="M440 238 C 460 238, 470 251, 480 251" stroke="#F59E0B" stroke-width="1.5" stroke-opacity="0.3"/>

  <!-- Insights to Bin (Red and Aligned to Bin Center y=145) -->
  <path d="M570 51 C 620 51, 630 145, 660 145" stroke="#EF4444" stroke-width="1.5" stroke-opacity="0.3"/>
  <path d="M575 111 C 620 111, 635 145, 665 145" stroke="#EF4444" stroke-width="1.5" stroke-opacity="0.3"/>
  <path d="M605 141 C 630 141, 645 145, 670 145" stroke="#EF4444" stroke-width="1.5" stroke-opacity="0.3"/>
  <path d="M580 221 C 630 221, 635 145, 665 145" stroke="#EF4444" stroke-width="1.5" stroke-opacity="0.3"/>
  <path d="M560 251 C 620 251, 630 145, 660 145" stroke="#EF4444" stroke-width="1.5" stroke-opacity="0.3"/>
</svg>
